<?xml version="1.0" encoding="UTF-8"?>
<svg xmlns="http://www.w3.org/2000/svg" version="1.1" viewBox="0 0 256 256">
  <defs>
    <style>
      .cls-1 {
        fill: #1e1e1e;
      }

      .cls-2 {
        stroke: #000;
        stroke-miterlimit: 10;
      }

      .cls-2, .cls-3 {
        fill: #fff;
      }
    </style>
  </defs>
  <!-- Generator: Adobe Illustrator 28.7.1, SVG Export Plug-In . SVG Version: 1.2.0 Build 142)  -->
  <g>
    <g id="Layer_1">
      <rect class="cls-1" x="-.1" y="-.1" width="256" height="256"/>
      <path class="cls-3" d="M1,255"/>
      <path class="cls-3" d="M255,1"/>
      <path class="cls-3" d="M1,255"/>
      <path class="cls-3" d="M255,1"/>
      <path class="cls-2" d="M165.3,80h-74.7c-5.9,0-10.7,4.8-10.7,10.7v74.7c0,5.9,4.8,10.7,10.7,10.7h74.7c5.9,0,10.7-4.8,10.7-10.7v-74.7c0-5.9-4.8-10.7-10.7-10.7ZM90.7,168c-1.6,0-2.7-1.1-2.7-2.7v-74.7c0-1.6,1.1-2.7,2.7-2.7h74.7c1.6,0,2.7,1.1,2.7,2.7v74.7c0,1.6-1.1,2.7-2.7,2.7h-74.7Z"/>
      <path class="cls-2" d="M129.6,105.1l6.4-6.4,21.9,21.9-6.4,6.4c-3.7-2.1-8.5-2.1-11.7,1.1l-2.7,2.7c-3.2,3.2-3.7,8-1.1,11.7l-6.4,6.4-8-8-9.6,8.5c-1.6,1.6-11.7,9.1-12.8,8-1.6-1.6,5.9-11.7,7.5-13.3l9.6-9.6-8-8,6.4-6.4c3.7,2.1,8.5,2.1,11.7-1.1l1.6-2.7c3.2-2.7,3.7-8,1.6-11.2Z"/>
    </g>
  </g>
</svg>